<?xml version="1.0" encoding="UTF-8" standalone="no"?>
<!DOCTYPE svg PUBLIC "-//W3C//DTD SVG 1.1//EN" "http://www.w3.org/Graphics/SVG/1.1/DTD/svg11.dtd">
<svg width="100%" height="100%" viewBox="0 0 149 9" version="1.1" xmlns="http://www.w3.org/2000/svg" xmlns:xlink="http://www.w3.org/1999/xlink" xml:space="preserve" xmlns:serif="http://www.serif.com/" style="fill-rule:evenodd;clip-rule:evenodd;stroke-linejoin:round;stroke-miterlimit:2;">
    <g transform="matrix(1,0,0,1,15.8566,-6)">
        <g transform="matrix(1,0,0,1,10,-251)">
            <circle cx="118.5" cy="261.5" r="4.5" style="fill:rgb(136,136,136);"/>
        </g>
        <g transform="matrix(1,0,0,1,-42.2541,-251)">
            <circle cx="118.5" cy="261.5" r="4.5" style="fill:rgb(136,136,136);"/>
        </g>
        <g transform="matrix(1,0,0,1,-94.124,-251)">
            <circle cx="118.5" cy="261.5" r="4.5" style="fill:rgb(136,136,136);"/>
        </g>
        <g transform="matrix(1,0,0,1,-6.90574,-251)">
            <circle cx="118.5" cy="261.5" r="4.5" style="fill:rgb(136,136,136);"/>
        </g>
        <g transform="matrix(1,0,0,1,-59.1599,-251)">
            <circle cx="118.5" cy="261.5" r="4.5" style="fill:rgb(136,136,136);"/>
        </g>
        <g transform="matrix(1,0,0,1,-111.03,-251)">
            <circle cx="118.5" cy="261.5" r="4.5" style="fill:rgb(136,136,136);"/>
        </g>
        <g transform="matrix(1,0,0,1,-25.7326,-251)">
            <circle cx="118.5" cy="261.5" r="4.5" style="fill:rgb(136,136,136);"/>
        </g>
        <g transform="matrix(1,0,0,1,-77.9867,-251)">
            <circle cx="118.5" cy="261.5" r="4.5" style="fill:rgb(136,136,136);"/>
        </g>
        <g transform="matrix(1,0,0,1,-129.857,-251)">
            <circle cx="118.5" cy="261.5" r="4.5" style="fill:rgb(136,136,136);"/>
        </g>
    </g>
</svg>
